<?xml version="1.0" encoding="UTF-8" standalone="no"?>
<!-- Created with Inkscape (http://www.inkscape.org/) -->

<svg
   width="142"
   height="69"
   viewBox="0 0 141.17092 69.136856"
   version="1.1"
   id="svg1"
   xml:space="preserve"
   xmlns="http://www.w3.org/2000/svg"
   xmlns:svg="http://www.w3.org/2000/svg"
   xmlns:rdf="http://www.w3.org/1999/02/22-rdf-syntax-ns#"
   xmlns:cc="http://creativecommons.org/ns#"
   xmlns:dc="http://purl.org/dc/elements/1.1/"><defs
     id="defs1" /><metadata
     id="metadata1"><rdf:RDF><cc:Work
         rdf:about=""><dc:format>image/svg+xml</dc:format><dc:type
           rdf:resource="http://purl.org/dc/dcmitype/StillImage" /></cc:Work></rdf:RDF></metadata><g
     id="g1"
     transform="scale(0.67733333)"><g
       fill="none"
       stroke="#3bc4a7"
       stroke-width="2"
       stroke-linejoin="round"
       stroke-linecap="round"
       id="g8"><!-- Central Hexagon (The Core) --><polygon
         points="45,53 45,47 50,44 55,47 55,53 50,56 "
         fill="#3bc4a7"
         id="polygon1" /><!-- 6 Petals Rotated Around the Center (50, 50) --><g
         fill="#3bc4a7"
         fill-opacity="0.15"
         stroke="#3bc4a7"
         stroke-width="2"
         id="g7"><polygon
           points="50,12 63,38 50,44 37,38 "
           id="polygon2" /><polygon
           points="50,12 63,38 50,44 37,38 "
           transform="rotate(60,50,50)"
           id="polygon3" /><polygon
           points="50,12 63,38 50,44 37,38 "
           transform="rotate(120,50,50)"
           id="polygon4" /><polygon
           points="50,12 63,38 50,44 37,38 "
           transform="rotate(180,50,50)"
           id="polygon5" /><polygon
           points="50,12 63,38 50,44 37,38 "
           transform="rotate(-120,50,50)"
           id="polygon6" /><polygon
           points="50,12 63,38 50,44 37,38 "
           transform="rotate(-60,50,50)"
           id="polygon7" /></g></g></g><path
     style="font-style:italic;font-weight:bold;font-size:18.6455px;font-family:'Noto Sans';-inkscape-font-specification:'Noto Sans, Bold Italic';fill:#ffffff;stroke-width:0.437691"
     d="M 63.228947,40.538629 62.072926,27.225742 h 2.684953 l 0.466137,8.017565 q 0.03729,0.578011 0.01865,1.305185 0,0.727175 -0.03729,1.267894 h 0.07458 q 0.2051,-0.615301 0.447492,-1.267894 0.261037,-0.671238 0.559365,-1.305185 l 3.915555,-8.017565 h 2.871407 l -6.805608,13.312887 z m 12.511126,0.186455 q -1.137376,0 -2.03236,-0.466137 -0.876338,-0.484783 -1.379767,-1.361122 -0.484783,-0.876338 -0.484783,-2.088296 0,-1.342476 0.335619,-2.535788 0.335619,-1.211957 1.006857,-2.125587 0.671238,-0.932275 1.678095,-1.454349 1.025503,-0.522074 2.386624,-0.522074 1.771323,0 2.815471,1.062794 1.044148,1.062793 1.044148,2.964634 0,1.28654 -0.316974,2.461206 -0.316973,1.174667 -0.988211,2.088296 -0.652593,0.91363 -1.678095,1.454349 -1.006857,0.522074 -2.386624,0.522074 z m 0.223746,-2.23746 q 0.764465,0 1.286539,-0.615301 0.54072,-0.615302 0.820402,-1.584868 0.279683,-0.988211 0.279683,-2.088296 0,-0.764465 -0.298328,-1.267894 -0.279683,-0.522074 -1.006857,-0.522074 -0.615302,0 -1.081439,0.428847 -0.466138,0.410201 -0.764466,1.081439 -0.298328,0.671238 -0.447492,1.435703 -0.149164,0.764466 -0.149164,1.454349 0,1.678095 1.361122,1.678095 z m 6.302162,2.051005 3.001925,-14.17058 h 2.740889 l -3.001926,14.17058 z m 8.931212,0.186455 q -1.193312,0 -1.920487,-0.503428 -0.727174,-0.522074 -0.727174,-1.845905 0,-0.466137 0.111873,-1.025502 l 1.044148,-4.903767 h -1.379767 l 0.261037,-1.342476 1.789968,-0.764465 1.193312,-2.144233 h 1.771322 l -0.447492,2.162878 h 2.573079 l -0.447492,2.088296 h -2.573079 l -1.044148,4.903767 q -0.05594,0.279682 -0.05594,0.484783 0,0.354264 0.223746,0.522074 0.223746,0.149164 0.57801,0.149164 0.37291,0 0.708529,-0.07458 0.354265,-0.09323 0.764466,-0.242392 v 2.051005 q -0.428847,0.205101 -1.044148,0.335619 -0.615302,0.149164 -1.379767,0.149164 z m 7.607358,0 q -0.727174,0 -1.398412,-0.354264 -0.652593,-0.37291 -1.062794,-1.174667 -0.410201,-0.820402 -0.410201,-2.162878 0,-1.249248 0.335619,-2.461206 0.335619,-1.211957 0.950921,-2.200169 0.615301,-1.006857 1.472994,-1.603513 0.876339,-0.596656 1.957782,-0.596656 0.96956,0 1.56622,0.410201 0.6153,0.410201 0.95092,1.081439 h 0.0746 l 0.52207,-1.305185 h 2.10695 l -2.16288,10.180443 h -2.05101 l 0.13052,-1.32383 h -0.0746 q -0.54072,0.671238 -1.24925,1.100084 -0.689883,0.410201 -1.659449,0.410201 z M 99.88599,38.50627 q 0.55937,0 1.04415,-0.447492 0.48478,-0.447492 0.8204,-1.156021 0.35426,-0.708529 0.50343,-1.49164 0.13052,-0.671238 0.13052,-1.528931 0,-0.652593 -0.33562,-1.062794 -0.33562,-0.428846 -0.93228,-0.428846 -0.50343,0 -0.95092,0.410201 -0.428844,0.391555 -0.764463,1.044148 -0.316973,0.652592 -0.503428,1.454349 -0.186455,0.801756 -0.186455,1.603513 0,1.603513 1.174666,1.603513 z m 10.60929,-9.415978 q -0.57801,0 -0.98821,-0.242391 -0.39156,-0.261037 -0.39156,-0.876339 0,-0.783111 0.42885,-1.193312 0.44749,-0.410201 1.2306,-0.410201 0.54072,0 0.95092,0.242392 0.4102,0.242391 0.4102,0.857693 0,0.727174 -0.4102,1.174666 -0.39156,0.447492 -1.2306,0.447492 z m -3.97149,11.448337 2.16287,-10.180443 h 2.74089 l -2.16288,10.180443 z m 5.53773,0 2.16287,-10.180443 h 2.0883 l -0.18645,1.883196 h 0.0932 q 0.6153,-0.969566 1.39842,-1.510286 0.78311,-0.559365 1.77132,-0.559365 0.22374,0 0.46614,0.03729 0.26103,0.01865 0.4102,0.05594 l -0.59666,2.647661 q -0.14916,-0.05594 -0.39155,-0.09323 -0.2424,-0.05594 -0.52208,-0.05594 -1.0255,0 -1.8459,0.820402 -0.80176,0.801756 -1.13738,2.405269 l -0.96956,4.549502 z m 11.98904,0.186455 q -1.78997,0 -2.9087,-0.969566 -1.11873,-0.988211 -1.11873,-2.964634 0,-1.28654 0.35426,-2.461206 0.37291,-1.193312 1.08144,-2.125587 0.72718,-0.932275 1.78997,-1.472995 1.06279,-0.559365 2.46121,-0.559365 1.71538,0 2.55443,0.783111 0.85769,0.783111 0.85769,1.995069 0,1.603513 -1.45435,2.573079 -1.4357,0.969566 -4.40033,0.969566 h -0.46614 q -0.0186,0.111873 -0.0186,0.2051 0,0.07458 0,0.16781 0,0.820402 0.46614,1.305185 0.48478,0.484783 1.34248,0.484783 0.80175,0 1.45435,-0.186455 0.65259,-0.186455 1.54757,-0.596656 v 2.06965 q -0.80175,0.391556 -1.62216,0.596656 -0.8204,0.186455 -1.92048,0.186455 z m -0.54072,-6.078433 q 1.58487,0 2.27475,-0.484783 0.70853,-0.503428 0.70853,-1.156021 0,-0.857693 -0.95092,-0.857693 -0.50343,0 -1.00686,0.316974 -0.50343,0.316973 -0.89498,0.876338 -0.37291,0.559365 -0.54072,1.305185 z"
     id="text1"
     aria-label="Voltaire" /></svg>
