<?xml version="1.0" encoding="UTF-8" standalone="no"?>
<!-- Created with Inkscape (http://www.inkscape.org/) -->

<svg
   width="90"
   height="44"
   viewBox="0 0 141.17092 69.136856"
   version="1.1"
   id="svg1"
   xml:space="preserve"
   sodipodi:docname="voltaire_logo_long.svg"
   inkscape:version="1.4.4 (dcaf3e7d9e, 2026-05-05)"
   inkscape:export-filename="voltaire_logo_long.svg"
   inkscape:export-xdpi="96"
   inkscape:export-ydpi="96"
   xmlns:inkscape="http://www.inkscape.org/namespaces/inkscape"
   xmlns:sodipodi="http://sodipodi.sourceforge.net/DTD/sodipodi-0.dtd"
   xmlns:xlink="http://www.w3.org/1999/xlink"
   xmlns="http://www.w3.org/2000/svg"
   xmlns:svg="http://www.w3.org/2000/svg"
   xmlns:rdf="http://www.w3.org/1999/02/22-rdf-syntax-ns#"
   xmlns:cc="http://creativecommons.org/ns#"
   xmlns:dc="http://purl.org/dc/elements/1.1/"><sodipodi:namedview
     id="namedview1"
     pagecolor="#ffffff"
     bordercolor="#000000"
     borderopacity="0.25"
     inkscape:showpageshadow="2"
     inkscape:pageopacity="0.0"
     inkscape:pagecheckerboard="0"
     inkscape:deskcolor="#d1d1d1"
     inkscape:document-units="mm"
     inkscape:zoom="0.37408442"
     inkscape:cx="191.13333"
     inkscape:cy="-32.078321"
     inkscape:window-width="1920"
     inkscape:window-height="1003"
     inkscape:window-x="3280"
     inkscape:window-y="40"
     inkscape:window-maximized="1"
     inkscape:current-layer="svg1" /><defs
     id="defs1" /><metadata
     id="metadata1"><rdf:RDF><cc:Work
         rdf:about=""><dc:format>image/svg+xml</dc:format><dc:type
           rdf:resource="http://purl.org/dc/dcmitype/StillImage" /></cc:Work></rdf:RDF></metadata><g
     id="g1"
     transform="scale(0.67733333)"><rect
       width="208.42163"
       height="102.07213"
       fill="#141619"
       id="rect1"
       x="0"
       y="0"
       rx="7.3818898"
       ry="7.3818898" /><g
       fill="none"
       stroke="#3bc4a7"
       stroke-width="2"
       stroke-linejoin="round"
       stroke-linecap="round"
       id="g8"><!-- Central Hexagon (The Core) --><polygon
         points="45,53 45,47 50,44 55,47 55,53 50,56 "
         fill="#3bc4a7"
         id="polygon1" /><!-- 6 Petals Rotated Around the Center (50, 50) --><g
         fill="#3bc4a7"
         fill-opacity="0.15"
         stroke="#3bc4a7"
         stroke-width="2"
         id="g7"><polygon
           points="50,44 37,38 50,12 63,38 "
           id="polygon2" /><polygon
           points="50,44 37,38 50,12 63,38 "
           transform="rotate(60,50,50)"
           id="polygon3" /><polygon
           points="50,44 37,38 50,12 63,38 "
           transform="rotate(120,50,50)"
           id="polygon4" /><polygon
           points="50,44 37,38 50,12 63,38 "
           transform="rotate(180,50,50)"
           id="polygon5" /><polygon
           points="50,44 37,38 50,12 63,38 "
           transform="rotate(-120,50,50)"
           id="polygon6" /><polygon
           points="50,44 37,38 50,12 63,38 "
           transform="rotate(-60,50,50)"
           id="polygon7" /></g></g></g><use
     x="0"
     y="0"
     xlink:href="#g1"
     id="use1" /><path
     style="font-style:italic;font-weight:bold;font-size:18.6455px;font-family:'Noto Sans';-inkscape-font-specification:'Noto Sans, Bold Italic';fill:#ffffff;stroke-width:0.437691"
     d="M 62.698485,34.703549 61.542464,21.390662 h 2.684953 l 0.466137,8.017565 q 0.03729,0.578011 0.01865,1.305185 0,0.727175 -0.03729,1.267894 h 0.07458 q 0.2051,-0.615301 0.447492,-1.267894 0.261037,-0.671238 0.559365,-1.305185 l 3.915555,-8.017565 h 2.871407 l -6.805608,13.312887 z m 12.511126,0.186455 q -1.137376,0 -2.03236,-0.466137 -0.876338,-0.484783 -1.379767,-1.361122 -0.484783,-0.876338 -0.484783,-2.088296 0,-1.342476 0.335619,-2.535788 0.335619,-1.211957 1.006857,-2.125587 0.671238,-0.932275 1.678095,-1.454349 1.025503,-0.522074 2.386624,-0.522074 1.771323,0 2.815471,1.062794 1.044148,1.062793 1.044148,2.964634 0,1.28654 -0.316974,2.461206 -0.316973,1.174667 -0.988211,2.088296 -0.652593,0.91363 -1.678095,1.454349 -1.006857,0.522074 -2.386624,0.522074 z m 0.223746,-2.23746 q 0.764465,0 1.286539,-0.615301 0.54072,-0.615302 0.820402,-1.584868 0.279683,-0.988211 0.279683,-2.088296 0,-0.764465 -0.298328,-1.267894 -0.279683,-0.522074 -1.006857,-0.522074 -0.615302,0 -1.081439,0.428847 -0.466138,0.410201 -0.764466,1.081439 -0.298328,0.671238 -0.447492,1.435703 -0.149164,0.764466 -0.149164,1.454349 0,1.678095 1.361122,1.678095 z m 6.302162,2.051005 3.001925,-14.17058 h 2.740889 l -3.001926,14.17058 z m 8.931212,0.186455 q -1.193312,0 -1.920487,-0.503428 -0.727174,-0.522074 -0.727174,-1.845905 0,-0.466137 0.111873,-1.025502 l 1.044148,-4.903767 h -1.379767 l 0.261037,-1.342476 1.789968,-0.764465 1.193312,-2.144233 h 1.771322 l -0.447492,2.162878 h 2.573079 l -0.447492,2.088296 h -2.573079 l -1.044148,4.903767 q -0.05594,0.279682 -0.05594,0.484783 0,0.354264 0.223746,0.522074 0.223746,0.149164 0.57801,0.149164 0.37291,0 0.708529,-0.07458 0.354265,-0.09323 0.764466,-0.242392 v 2.051005 q -0.428847,0.205101 -1.044148,0.335619 -0.615302,0.149164 -1.379767,0.149164 z m 7.607358,0 q -0.727174,0 -1.398412,-0.354264 -0.652593,-0.37291 -1.062794,-1.174667 -0.410201,-0.820402 -0.410201,-2.162878 0,-1.249248 0.335619,-2.461206 0.335619,-1.211957 0.950921,-2.200169 0.615301,-1.006857 1.472994,-1.603513 0.876339,-0.596656 1.957784,-0.596656 0.96956,0 1.56622,0.410201 0.6153,0.410201 0.95092,1.081439 h 0.0746 l 0.52207,-1.305185 h 2.10695 l -2.16288,10.180443 h -2.05101 l 0.13052,-1.32383 h -0.0746 q -0.54072,0.671238 -1.249252,1.100084 -0.689883,0.410201 -1.659449,0.410201 z m 1.081439,-2.218814 q 0.55937,0 1.044152,-0.447492 0.48478,-0.447492 0.8204,-1.156021 0.35426,-0.708529 0.50343,-1.49164 0.13052,-0.671238 0.13052,-1.528931 0,-0.652593 -0.33562,-1.062794 -0.33562,-0.428846 -0.93228,-0.428846 -0.50343,0 -0.950922,0.410201 -0.428844,0.391555 -0.764463,1.044148 -0.316973,0.652592 -0.503428,1.454349 -0.186455,0.801756 -0.186455,1.603513 0,1.603513 1.174666,1.603513 z m 10.609292,-9.415978 q -0.57801,0 -0.98821,-0.242391 -0.39156,-0.261037 -0.39156,-0.876339 0,-0.783111 0.42885,-1.193312 0.44749,-0.410201 1.2306,-0.410201 0.54072,0 0.95092,0.242392 0.4102,0.242391 0.4102,0.857693 0,0.727174 -0.4102,1.174666 -0.39156,0.447492 -1.2306,0.447492 z m -3.97149,11.448337 2.16287,-10.180443 h 2.74089 l -2.16288,10.180443 z m 5.53773,0 2.16287,-10.180443 h 2.0883 l -0.18645,1.883196 h 0.0932 q 0.6153,-0.969566 1.39842,-1.510286 0.78311,-0.559365 1.77132,-0.559365 0.22374,0 0.46614,0.03729 0.26103,0.01865 0.4102,0.05594 l -0.59666,2.647661 q -0.14916,-0.05594 -0.39155,-0.09323 -0.2424,-0.05594 -0.52208,-0.05594 -1.0255,0 -1.8459,0.820402 -0.80176,0.801756 -1.13738,2.405269 l -0.96956,4.549502 z m 11.98904,0.186455 q -1.78997,0 -2.9087,-0.969566 -1.11873,-0.988211 -1.11873,-2.964634 0,-1.28654 0.35426,-2.461206 0.37291,-1.193312 1.08144,-2.125587 0.72718,-0.932275 1.78997,-1.472995 1.06279,-0.559365 2.46121,-0.559365 1.71538,0 2.55443,0.783111 0.85769,0.783111 0.85769,1.995069 0,1.603513 -1.45435,2.573079 -1.4357,0.969566 -4.40033,0.969566 h -0.46614 q -0.0186,0.111873 -0.0186,0.2051 0,0.07458 0,0.16781 0,0.820402 0.46614,1.305185 0.48478,0.484783 1.34248,0.484783 0.80175,0 1.45435,-0.186455 0.65259,-0.186455 1.54757,-0.596656 v 2.06965 q -0.80175,0.391556 -1.62216,0.596656 -0.8204,0.186455 -1.92048,0.186455 z m -0.54072,-6.078433 q 1.58487,0 2.27475,-0.484783 0.70853,-0.503428 0.70853,-1.156021 0,-0.857693 -0.95092,-0.857693 -0.50343,0 -1.00686,0.316974 -0.50343,0.316973 -0.89498,0.876338 -0.37291,0.559365 -0.54072,1.305185 z"
     id="text1"
     aria-label="Voltaire" /><path
     style="font-size:9.87778px;font-family:FreeMono;-inkscape-font-specification:'FreeMono, Normal';fill:#ffffff;stroke-width:0.265"
     d="m 65.196988,39.877882 q -0.612422,0 -1.056922,0.2667 -0.444501,0.2667 -0.651934,0.651934 -0.197555,0.385233 -0.286455,0.701322 -0.0889,0.316089 -0.0889,0.5334 v 0.721078 q 0,1.007534 0.612423,1.590323 0.612422,0.572911 1.679222,0.572911 0.691445,0 1.412523,-0.335844 v -1.481667 h -1.373011 q -0.266701,0 -0.266701,-0.207434 0,-0.197555 0.266701,-0.197555 h 1.916289 q 0.276578,0 0.276578,0.197555 0,0.207434 -0.276578,0.207434 h -0.138289 v 1.708856 q -0.889,0.513644 -1.847145,0.513644 -1.214967,0 -1.945923,-0.701322 -0.721077,-0.701323 -0.721077,-1.866901 v -0.730955 q 0,-1.037167 0.691444,-1.787879 0.701322,-0.760589 1.778,-0.760589 0.977901,0 1.639712,0.533401 v -0.138289 q 0,-0.2667 0.207433,-0.2667 0.197556,0 0.197556,0.2667 v 0.898878 q 0,0.2667 -0.197556,0.2667 -0.187677,0 -0.197555,-0.246945 -0.02963,-0.375356 -0.503767,-0.642056 -0.474133,-0.2667 -1.126067,-0.2667 z m 4.049894,1.550812 q 0,-0.217311 0.671689,-0.365478 0.671689,-0.158045 1.047045,-0.158045 0.691444,0 1.135944,0.345723 0.454378,0.345722 0.454378,0.869244 v 2.637368 h 0.5334 q 0.2667,0 0.2667,0.197555 0,0.207434 -0.2667,0.207434 h -0.938389 v -0.661812 q -0.879122,0.819856 -1.886656,0.819856 -0.691444,0 -1.116189,-0.345722 -0.424744,-0.3556 -0.424744,-0.918634 0,-0.642055 0.572911,-1.037167 0.582789,-0.404989 1.5113,-0.404989 0.582789,0 1.343378,0.207434 v -0.701323 q 0,-0.365477 -0.335844,-0.582789 -0.335845,-0.227189 -0.879123,-0.227189 -0.454378,0 -0.938389,0.158045 -0.484011,0.158044 -0.563033,0.158044 -0.07902,0 -0.138289,-0.05927 -0.04939,-0.05927 -0.04939,-0.138289 z m 2.904067,2.627489 v -0.889 q -0.592667,-0.148167 -1.264356,-0.148167 -0.780344,0 -1.274233,0.296334 -0.484012,0.286455 -0.484012,0.750711 0,0.385234 0.306212,0.6223 0.306211,0.227189 0.819855,0.227189 0.523523,0 0.958145,-0.197555 0.4445,-0.197556 0.938389,-0.661812 z m 2.894194,-3.012723 v 0.513645 q 0.246944,-0.3556 0.484011,-0.503767 0.237067,-0.148167 0.553156,-0.148167 0.632177,0 0.958144,0.701323 0.543278,-0.701323 1.116189,-0.701323 0.424745,0 0.730956,0.316089 0.306211,0.316089 0.306211,0.750712 v 2.785534 h 0.335845 q 0.2667,0 0.2667,0.197555 0,0.207434 -0.2667,0.207434 h -0.730956 v -3.151012 q 0,-0.276578 -0.197556,-0.484011 -0.197555,-0.217312 -0.454377,-0.217312 -0.493889,0 -1.02729,0.809978 v 2.637368 h 0.335845 q 0.2667,0 0.2667,0.197555 0,0.207434 -0.2667,0.207434 h -0.730956 v -3.121379 q 0,-0.286455 -0.197555,-0.503767 -0.187678,-0.227189 -0.4445,-0.227189 -0.493889,0 -1.037167,0.809978 v 2.637368 h 0.335844 q 0.2667,0 0.2667,0.197555 0,0.207434 -0.2667,0.207434 h -1.076678 q -0.256822,0 -0.256822,-0.207434 0,-0.197555 0.2667,-0.197555 h 0.335844 v -3.309057 h -0.335844 q -0.2667,0 -0.2667,-0.207433 0,-0.197556 0.2667,-0.197556 z m 9.956806,2.153356 h -4.109157 q 0.108656,0.780345 0.651934,1.254479 0.543278,0.464255 1.343378,0.464255 0.464256,0 0.948267,-0.148167 0.484011,-0.148166 0.780344,-0.385233 0.09878,-0.06914 0.158045,-0.06914 0.07902,0 0.128411,0.05927 0.05927,0.05927 0.05927,0.138289 0,0.256822 -0.7112,0.5334 -0.701323,0.276578 -1.373012,0.276578 -0.997656,0 -1.698978,-0.671689 -0.691445,-0.671689 -0.691445,-1.629834 0,-0.898878 0.651934,-1.501422 0.651933,-0.612423 1.6002,-0.612423 0.997656,0 1.629834,0.632178 0.632178,0.622301 0.632178,1.659467 z m -4.109157,-0.404989 h 3.69429 q -0.118533,-0.671689 -0.6223,-1.076678 -0.503767,-0.404989 -1.224845,-0.404989 -0.721078,0 -1.214967,0.404989 -0.493889,0.395112 -0.632178,1.076678 z m 12.455889,-0.316088 v 2.281767 h 3.101623 V 43.58205 q 0,-0.2667 0.207433,-0.2667 0.197556,0 0.197556,0.2667 v 1.580445 h -4.445001 q -0.2667,0 -0.2667,-0.207434 0,-0.197555 0.2667,-0.197555 h 0.5334 v -4.751212 h -0.5334 q -0.2667,0 -0.2667,-0.207434 0,-0.197555 0.2667,-0.197555 h 4.237567 v 1.373011 q 0,0.2667 -0.207433,0.2667 -0.197556,0 -0.197556,-0.2667 v -0.968022 h -2.894189 v 2.064456 h 1.432278 v -0.444501 q 0,-0.2667 0.207433,-0.2667 0.197556,0 0.197556,0.2667 v 1.29399 q 0,0.2667 -0.197556,0.2667 -0.207433,0 -0.207433,-0.2667 v -0.4445 z m 7.447849,-1.165579 q -0.1778,0 -0.34572,0.03951 -0.15805,0.02963 -0.30621,0.108655 -0.13829,0.06915 -0.237069,0.138289 -0.09878,0.05927 -0.217311,0.1778 -0.108656,0.118533 -0.158045,0.1778 -0.03951,0.04939 -0.138289,0.1778 -0.0889,0.118534 -0.09878,0.128411 v 2.499079 h 0.4445 q 0.266701,0 0.266701,0.197555 0,0.207434 -0.266701,0.207434 h -1.29399 q -0.276577,0 -0.276577,-0.207434 0,-0.197555 0.276577,-0.197555 h 0.444501 v -3.309057 h -0.335845 q -0.2667,0 -0.2667,-0.207433 0,-0.197556 0.2667,-0.197556 h 0.740834 v 0.681567 q 0.424744,-0.474133 0.750711,-0.642055 0.32597,-0.177801 0.79022,-0.177801 0.66181,0 1.10631,0.385234 0.4445,0.385233 0.4445,0.958145 v 2.508956 h 0.33585 q 0.2667,0 0.2667,0.197555 0,0.207434 -0.2667,0.207434 h -1.07668 q -0.2667,0 -0.2667,-0.207434 0,-0.197555 0.2667,-0.197555 h 0.33584 v -2.439812 q 0,-0.424745 -0.32596,-0.7112 -0.31609,-0.296334 -0.85937,-0.296334 z m 7.12188,0.553156 V 41.04346 h 0.93839 q 0.2667,0 0.2667,0.197556 0,0.207433 -0.2667,0.207433 h -0.5334 v 3.990623 q 0,0.632178 -0.47413,1.096434 -0.47414,0.464256 -1.1557,0.464256 h -1.12607 q -0.2667,0 -0.2667,-0.207434 0,-0.197555 0.2667,-0.197555 h 1.14582 q 0.50377,0 0.84949,-0.3556 0.3556,-0.3556 0.3556,-0.859367 v -1.274234 q -0.65193,0.958145 -1.6891,0.958145 -0.83961,0 -1.44215,-0.612422 -0.59267,-0.612423 -0.59267,-1.47179 0,-0.859367 0.59267,-1.461911 0.60254,-0.612423 1.44215,-0.612423 1.04705,0 1.6891,0.958145 z m -1.65946,-0.553156 q -0.69145,0 -1.17546,0.484012 -0.48401,0.484011 -0.48401,1.185333 0,0.701323 0.48401,1.195212 0.48401,0.484011 1.17546,0.484011 0.69144,0 1.17545,-0.484011 0.48401,-0.484012 0.48401,-1.175456 0,-0.721078 -0.48401,-1.205089 -0.47413,-0.484012 -1.17545,-0.484012 z m 6.4008,-0.2667 v 3.714046 h 1.58045 q 0.27658,0 0.27658,0.197555 0,0.207434 -0.27658,0.207434 h -3.56588 q -0.2667,0 -0.2667,-0.207434 0,-0.197555 0.2667,-0.197555 h 1.58044 v -3.309057 h -1.16557 q -0.2667,0 -0.2667,-0.207433 0,-0.197556 0.2667,-0.197556 z m -0.0198,-2.0447 v 1.027289 h -0.58279 V 38.99876 Z m 5.93655,2.3114 q -0.1778,0 -0.34572,0.03951 -0.15805,0.02963 -0.30621,0.108655 -0.13829,0.06915 -0.23707,0.138289 -0.0988,0.05927 -0.21731,0.1778 -0.10866,0.118533 -0.15805,0.1778 -0.0395,0.04939 -0.13829,0.1778 -0.0889,0.118534 -0.0988,0.128411 v 2.499079 h 0.4445 q 0.2667,0 0.2667,0.197555 0,0.207434 -0.2667,0.207434 h -1.29399 q -0.27658,0 -0.27658,-0.207434 0,-0.197555 0.27658,-0.197555 h 0.4445 v -3.309057 h -0.33585 q -0.2667,0 -0.2667,-0.207433 0,-0.197556 0.2667,-0.197556 h 0.74084 v 0.681567 q 0.42474,-0.474133 0.75071,-0.642055 0.32596,-0.177801 0.79022,-0.177801 0.66181,0 1.10631,0.385234 0.4445,0.385233 0.4445,0.958145 v 2.508956 h 0.33585 q 0.2667,0 0.2667,0.197555 0,0.207434 -0.2667,0.207434 h -1.07668 q -0.2667,0 -0.2667,-0.207434 0,-0.197555 0.2667,-0.197555 h 0.33584 v -2.439812 q 0,-0.424745 -0.32596,-0.7112 -0.31609,-0.296334 -0.85937,-0.296334 z m 7.9121,1.886656 h -4.10915 q 0.10865,0.780345 0.65193,1.254479 0.54328,0.464255 1.34338,0.464255 0.46425,0 0.94826,-0.148167 0.48402,-0.148166 0.78035,-0.385233 0.0988,-0.06914 0.15804,-0.06914 0.079,0 0.12841,0.05927 0.0593,0.05927 0.0593,0.138289 0,0.256822 -0.7112,0.5334 -0.70132,0.276578 -1.37301,0.276578 -0.99766,0 -1.69898,-0.671689 -0.69144,-0.671689 -0.69144,-1.629834 0,-0.898878 0.65193,-1.501422 0.65193,-0.612423 1.6002,-0.612423 0.99766,0 1.62983,0.632178 0.63218,0.622301 0.63218,1.659467 z m -4.10915,-0.404989 h 3.69429 q -0.11854,-0.671689 -0.6223,-1.076678 -0.50377,-0.404989 -1.22485,-0.404989 -0.72108,0 -1.21497,0.404989 -0.49388,0.395112 -0.63217,1.076678 z"
     id="text2"
     aria-label="Game Engine" /></svg>
